<svg width="48" height="48" viewBox="0 0 48 48" fill="none" xmlns="http://www.w3.org/2000/svg">
<path d="M42.2669 38.7788H5.73312C4.74332 38.7778 3.79431 38.3842 3.09441 37.6843C2.39451 36.9844 2.00091 36.0354 2 35.0456V13.7331C2.00091 12.7433 2.39451 11.7943 3.09441 11.0944C3.79431 10.3945 4.74332 10.0009 5.73312 10H42.2669C43.2567 10.0009 44.2057 10.3945 44.9056 11.0944C45.6055 11.7943 45.9991 12.7433 46 13.7331V35.0456C45.9991 36.0354 45.6055 36.9844 44.9056 37.6843C44.2057 38.3842 43.2567 38.7778 42.2669 38.7788ZM5.73312 11.375C5.10799 11.3759 4.50872 11.6246 4.06668 12.0667C3.62465 12.5087 3.37591 13.108 3.375 13.7331V35.0456C3.37591 35.6708 3.62465 36.27 4.06668 36.7121C4.50872 37.1541 5.10799 37.4028 5.73312 37.4038H42.2669C42.892 37.4028 43.4913 37.1541 43.9333 36.7121C44.3754 36.27 44.6241 35.6708 44.625 35.0456V13.7331C44.6241 13.108 44.3754 12.5087 43.9333 12.0667C43.4913 11.6246 42.892 11.3759 42.2669 11.375H5.73312Z" fill="#3A393A"/>
<path d="M14.7837 26.396H9.45898C9.09431 26.396 8.74458 26.2511 8.48671 25.9932C8.22885 25.7354 8.08398 25.3856 8.08398 25.021V20.8135C8.08398 20.4488 8.22885 20.0991 8.48671 19.8412C8.74458 19.5833 9.09431 19.4385 9.45898 19.4385H14.7837C15.1483 19.4385 15.4981 19.5833 15.7559 19.8412C16.0138 20.0991 16.1587 20.4488 16.1587 20.8135V25.021C16.1587 25.3856 16.0138 25.7354 15.7559 25.9932C15.4981 26.2511 15.1483 26.396 14.7837 26.396ZM9.45898 20.8135V25.021H14.7837V20.8135H9.45898Z" fill="#3A393A"/>
<path d="M23.5965 32.6875H8.67773C8.4954 32.6875 8.32053 32.6151 8.1916 32.4861C8.06267 32.3572 7.99023 32.1823 7.99023 32C7.99023 31.8177 8.06267 31.6428 8.1916 31.5139C8.32053 31.3849 8.4954 31.3125 8.67773 31.3125H23.5965C23.7788 31.3125 23.9537 31.3849 24.0826 31.5139C24.2116 31.6428 24.284 31.8177 24.284 32C24.284 32.1823 24.2116 32.3572 24.0826 32.4861C23.9537 32.6151 23.7788 32.6875 23.5965 32.6875Z" fill="#3A393A"/>
<path d="M30.3811 25.7626C30.2549 25.7627 30.131 25.7279 30.0232 25.6623C29.9154 25.5966 29.8277 25.5025 29.7699 25.3903C29.712 25.2781 29.6861 25.1521 29.6951 25.0262C29.7041 24.9002 29.7476 24.7792 29.8208 24.6763C30.1801 24.1636 30.3728 23.5527 30.3728 22.9267C30.3728 22.3006 30.1801 21.6897 29.8208 21.177C29.7155 21.0279 29.6737 20.8431 29.7047 20.6633C29.7356 20.4834 29.8368 20.3232 29.9858 20.2179C30.1349 20.1126 30.3197 20.0708 30.4995 20.1018C30.6794 20.1327 30.8396 20.2338 30.9449 20.3829C31.4675 21.1282 31.7478 22.0164 31.7478 22.9267C31.7478 23.8369 31.4675 24.7251 30.9449 25.4704C30.8813 25.5609 30.7969 25.6346 30.6988 25.6855C30.6006 25.7364 30.4917 25.7628 30.3811 25.7626Z" fill="#3A393A"/>
<path d="M32.8561 27.0222C32.7342 27.0205 32.6152 26.9847 32.5124 26.9191C32.3575 26.8233 32.247 26.6699 32.2051 26.4927C32.1632 26.3154 32.1934 26.1288 32.2889 25.9738C32.8553 25.0551 33.1552 23.9971 33.1552 22.9179C33.1552 21.8386 32.8553 20.7806 32.2889 19.8619C32.1928 19.707 32.1621 19.5201 32.2037 19.3425C32.2452 19.1649 32.3557 19.0111 32.5107 18.9149C32.5874 18.8673 32.6728 18.8352 32.7619 18.8206C32.851 18.806 32.9422 18.809 33.0301 18.8296C33.2077 18.8712 33.3615 18.9816 33.4577 19.1366C34.157 20.2739 34.5273 21.5828 34.5273 22.9179C34.5273 24.2529 34.157 25.5619 33.4577 26.6991C33.3943 26.8007 33.3054 26.884 33.1999 26.9406C33.0943 26.9973 32.9759 27.0254 32.8561 27.0222Z" fill="#3A393A"/>
<path d="M35.4295 28.3497C35.3091 28.349 35.1911 28.3167 35.0872 28.2561C34.9832 28.1954 34.897 28.1086 34.8372 28.0042C34.7773 27.8998 34.7459 27.7815 34.7461 27.6612C34.7463 27.5408 34.778 27.4227 34.8382 27.3185C35.6192 25.9855 36.0309 24.4685 36.0309 22.9236C36.0309 21.3787 35.6192 19.8617 34.8382 18.5288C34.7634 18.3727 34.7501 18.1942 34.8011 18.0289C34.8521 17.8635 34.9636 17.7235 35.1133 17.6367C35.263 17.5499 35.4399 17.5227 35.6088 17.5607C35.7776 17.5986 35.9259 17.6988 36.0242 17.8413C36.9291 19.3853 37.4061 21.1426 37.4061 22.9322C37.4061 24.7218 36.9291 26.4791 36.0242 28.0231C35.9617 28.1244 35.8741 28.2077 35.7699 28.2649C35.6657 28.3221 35.5484 28.3513 35.4295 28.3497Z" fill="#3A393A"/>
<path d="M38.0917 29.7277C37.971 29.7275 37.8524 29.6955 37.748 29.6349C37.5902 29.5448 37.4744 29.3958 37.4261 29.2206C37.3778 29.0454 37.4008 28.8582 37.4902 28.6999C38.4905 26.9371 39.0164 24.9449 39.0164 22.918C39.0164 20.8912 38.4905 18.899 37.4902 17.1362C37.399 16.9775 37.3746 16.7892 37.4223 16.6125C37.47 16.4359 37.5859 16.2855 37.7446 16.1943C37.9032 16.1031 38.0915 16.0787 38.2682 16.1264C38.4448 16.1741 38.5953 16.29 38.6864 16.4487C39.8049 18.4189 40.3929 20.6456 40.3929 22.9112C40.3929 25.1767 39.8049 27.4035 38.6864 29.3737C38.6275 29.48 38.5414 29.5688 38.4369 29.631C38.3324 29.6932 38.2133 29.7266 38.0917 29.7277Z" fill="#3A393A"/>
</svg>
