<svg width="24" height="24" viewBox="0 0 24 24" fill="none" xmlns="http://www.w3.org/2000/svg">
<path d="M18.0229 5H5.97714C3.78408 5 2 6.7898 2 8.98939V15.7041C2 17.9041 3.78408 19.6935 5.97714 19.6935H18.0229C20.2159 19.6935 22 17.9037 22 15.7041V8.98939C22 6.7898 20.2159 5 18.0229 5ZM21.1837 15.7045C21.1837 17.4543 19.7657 18.8776 18.0229 18.8776H5.97714C4.23429 18.8776 2.81633 17.4539 2.81633 15.7045V8.98939C2.81633 7.24 4.23429 5.81633 5.97714 5.81633H18.0229C19.7657 5.81633 21.1837 7.24 21.1837 8.98939V15.7045Z" fill="white"/>
<path d="M15.617 12.2001L9.96194 8.88785C9.83623 8.81439 9.6799 8.81316 9.55296 8.88581C9.42602 8.95847 9.34766 9.09357 9.34766 9.2401V15.8642C9.34766 16.0103 9.42602 16.1458 9.55255 16.2185C9.61541 16.2544 9.68562 16.2723 9.75582 16.2723C9.82725 16.2723 9.89827 16.2536 9.96194 16.2164L15.617 12.905C15.7419 12.8319 15.8191 12.6977 15.8191 12.5528C15.8191 12.4079 15.7424 12.2732 15.617 12.2001ZM10.164 15.1519V9.95194L14.6032 12.5523L10.164 15.1519Z" fill="white"/>
</svg>
