<svg width="24" height="24" viewBox="0 0 24 24" fill="none" xmlns="http://www.w3.org/2000/svg">
<path d="M21 7.5C19.7071 7.5 18.4671 6.98639 17.5529 6.07215C16.6386 5.15791 16.125 3.91793 16.125 2.625C16.125 2.52554 16.0855 2.43016 16.0152 2.35984C15.9448 2.28951 15.8495 2.25 15.75 2.25H12C11.9005 2.25 11.8052 2.28951 11.7348 2.35984C11.6645 2.43016 11.625 2.52554 11.625 2.625V14.625C11.6246 15.0275 11.5163 15.4225 11.3113 15.7689C11.1063 16.1153 10.8121 16.4003 10.4594 16.5943C10.1067 16.7883 9.70848 16.8841 9.30616 16.8718C8.90385 16.8595 8.5122 16.7395 8.17206 16.5243C7.83191 16.3091 7.55572 16.0066 7.37227 15.6483C7.18883 15.2901 7.10485 14.8892 7.12909 14.4874C7.15332 14.0856 7.28489 13.6977 7.51008 13.3641C7.73527 13.0305 8.04583 12.7634 8.40938 12.5906C8.47286 12.5596 8.52658 12.5117 8.56462 12.4522C8.60266 12.3926 8.62355 12.3238 8.625 12.2531V8.35312C8.62586 8.29784 8.61447 8.24304 8.59167 8.19267C8.56886 8.1423 8.5352 8.09759 8.49309 8.06175C8.45098 8.02592 8.40147 7.99983 8.3481 7.98538C8.29472 7.97092 8.23882 7.96844 8.18438 7.97812C6.92053 8.20461 5.74749 8.78686 4.80291 9.65656C3.85833 10.5263 3.1814 11.6473 2.85154 12.8882C2.52169 14.1291 2.5526 15.4383 2.94064 16.6623C3.32869 17.8862 4.05778 18.9741 5.04235 19.7983C6.02692 20.6224 7.22613 21.1487 8.49926 21.3152C9.77239 21.4818 11.0666 21.2818 12.2301 20.7387C13.3936 20.1956 14.378 19.332 15.0679 18.2491C15.7578 17.1662 16.1245 15.909 16.125 14.625V10.6313C17.5915 11.531 19.2795 12.0049 21 12C21.0995 12 21.1948 11.9605 21.2652 11.8902C21.3355 11.8198 21.375 11.7245 21.375 11.625V7.875C21.375 7.77554 21.3355 7.68016 21.2652 7.60983C21.1948 7.53951 21.0995 7.5 21 7.5ZM20.625 11.2406C18.9463 11.1773 17.3244 10.616 15.9656 9.62812C15.9101 9.58909 15.845 9.56586 15.7773 9.5609C15.7096 9.55595 15.6419 9.56946 15.5813 9.6C15.5188 9.63145 15.4665 9.67971 15.43 9.73935C15.3936 9.79898 15.3745 9.86761 15.375 9.9375V14.625C15.3744 15.7471 15.0592 16.8465 14.4652 17.7984C13.8712 18.7504 13.0221 19.5166 12.0144 20.0102C11.0067 20.5039 9.88085 20.705 8.7646 20.5908C7.64835 20.4767 6.58648 20.0518 5.69957 19.3645C4.81267 18.6771 4.13628 17.7548 3.74722 16.7024C3.35816 15.6499 3.27202 14.5094 3.49858 13.4105C3.72515 12.3115 4.25534 11.2981 5.02894 10.4853C5.80255 9.67257 6.78856 9.09302 7.875 8.8125V12.0281C7.4189 12.2915 7.04016 12.6702 6.77685 13.1263C6.51354 13.5824 6.37495 14.0998 6.375 14.6265C6.37505 15.1532 6.51375 15.6705 6.77715 16.1266C7.04055 16.5827 7.41937 16.9613 7.87552 17.2246C8.33168 17.4878 8.84909 17.6263 9.37575 17.6262C9.90241 17.6261 10.4198 17.4873 10.8758 17.2238C11.3318 16.9604 11.7104 16.5815 11.9736 16.1253C12.2368 15.6691 12.3752 15.1517 12.375 14.625V3H15.3844C15.4784 4.35888 16.0608 5.6379 17.0239 6.60108C17.9871 7.56425 19.2661 8.14658 20.625 8.24063V11.2406Z" fill="white"/>
</svg>
