<svg width="49" height="48" viewBox="0 0 49 48" fill="none" xmlns="http://www.w3.org/2000/svg">
<path d="M38.0053 13.244L25.0909 7.70925C24.7136 7.54754 24.2864 7.54754 23.9091 7.70925L10.9947 13.244C10.3803 13.5073 10.0143 14.1454 10.0972 14.8088L11.7102 27.7126C11.9146 29.348 12.7327 30.8447 13.9988 31.8999L23.5397 39.8506C24.096 40.3142 24.904 40.3142 25.4603 39.8506L35.0012 31.8999C36.2673 30.8447 37.0854 29.348 37.2898 27.7126L38.9028 14.8088C38.9857 14.1454 38.6197 13.5073 38.0053 13.244Z" stroke="#3A393A" stroke-linecap="round"/>
<path d="M18.5 24L24.0687 29.5687C24.2918 29.7918 24.6633 29.7551 24.8383 29.4925L32.5 18" stroke="#3A393A" stroke-linecap="round"/>
</svg>
