<svg width="24" height="24" viewBox="0 0 24 24" fill="none" xmlns="http://www.w3.org/2000/svg">
<path d="M9.75 6.66016V7.92766H23.9869C23.967 7.51891 23.9242 7.00216 23.7712 6.66016" fill="#EC1C24"/>
<path d="M23.1 5.39258H9.75V6.66008H23.7712C23.619 6.1872 23.3925 5.75595 23.1 5.39258Z" fill="#E6E7E8"/>
<path d="M20.25 4.125H9.75V5.3925H23.1C22.4741 4.60875 21.444 4.125 20.25 4.125Z" fill="#EC1C24"/>
<path d="M23.9869 7.92773H9.75V9.19523H24V8.35036C24 8.27498 23.9951 8.20148 23.9929 8.12761C23.9914 8.10736 23.9891 8.05523 23.9869 7.92773Z" fill="#E6E7E8"/>
<path d="M9.75 10.4628H24V9.19531H9.75V10.4628Z" fill="#EC1C24"/>
<path d="M9.75 11.7304H24V10.4629H9.75V11.7304Z" fill="#E6E7E8"/>
<path d="M9.75 11.7305H24V12.998H9.75V11.7305Z" fill="#EC1C24"/>
<path d="M0 12.9961V14.2636H24V12.9961H9.75H0Z" fill="#E6E7E8"/>
<path d="M0 14.2656H24V15.5331H0V14.2656Z" fill="#EC1C24"/>
<path d="M0.001875 16.3128C0.001875 16.3128 -0.0015 16.62 0.0075 16.8007H23.9925C24.003 16.6155 23.9981 16.3128 23.9981 16.3128L24 15.5332H0L0.001875 16.3128Z" fill="#E6E7E8"/>
<path d="M3.75125 20.6259H20.2512C21.4486 20.6259 22.4439 20.1909 23.1238 19.3359H0.875C1.577 20.2097 2.591 20.6259 3.74937 20.6259" fill="#EC1C24"/>
<path d="M0.875313 19.3339H23.1241C23.4207 18.9571 23.6422 18.5268 23.7766 18.0664H0.226562C0.363474 18.5254 0.584055 18.9551 0.877187 19.3339" fill="#E6E7E8"/>
<path d="M0.225313 18.0683H23.7753C23.8981 17.656 23.9711 17.2304 23.9928 16.8008H0.0078125C0.0449375 17.2343 0.0794375 17.5617 0.225313 18.0683Z" fill="#EC1C24"/>
<path d="M9.75 4.125H3.75C1.26488 4.125 0 5.97187 0 8.25V12.9975H9.75V4.125Z" fill="#176496"/>
<path d="M1.05025 6.36628L1.25425 6.20953L1.45788 6.36628L1.37875 6.11428L1.58163 5.96016H1.33112L1.2535 5.70703L1.17625 5.96016H0.926125L1.12975 6.11428L1.05025 6.36628ZM2.398 6.36628L2.602 6.20953L2.80563 6.36628L2.72688 6.11428L2.92938 5.96016H2.67925L2.60163 5.70703L2.52438 5.96016H2.2735L2.47713 6.11428L2.398 6.36628ZM3.88488 6.36628L4.0885 6.20953L4.2925 6.36628L4.21338 6.11428L4.41587 5.96016H4.16725L4.0885 5.70703L4.01087 5.96016H3.76225L3.96363 6.11428L3.88488 6.36628ZM5.36088 6.36628L5.5645 6.20953L5.7685 6.36628L5.68975 6.11428L5.89225 5.96016H5.641L5.5645 5.70703L5.48725 5.96016H5.23675L5.44 6.11428L5.36088 6.36628ZM6.84213 6.36628L7.04613 6.20953L7.24975 6.36628L7.171 6.11428L7.37388 5.96016H7.123L7.04575 5.70703L6.9685 5.96016H6.71838L6.92088 6.11428L6.84213 6.36628ZM1.76763 7.02441L1.97125 6.86803L2.17488 7.02441L2.0965 6.77278L2.299 6.61866H2.0485L1.97088 6.36591L1.89475 6.61866H1.6435L1.84638 6.77278L1.76763 7.02441ZM3.11575 7.02441L3.31938 6.86803L3.523 7.02441L3.44425 6.77278L3.64675 6.61866H3.39475L3.31938 6.36591L3.24175 6.61866H2.99163L3.1945 6.77278L3.11575 7.02441ZM4.60263 7.02441L4.80588 6.86803L5.0095 7.02441L4.93075 6.77278L5.13363 6.61866H4.8835L4.80588 6.36591L4.72825 6.61866H4.47775L4.68063 6.77278L4.60263 7.02441ZM6.07788 7.02441L6.28188 6.86803L6.48588 7.02441L6.406 6.77278L6.60925 6.61866H6.35913L6.2815 6.36591L6.20463 6.61866H5.95413L6.157 6.77278L6.07788 7.02441ZM7.561 7.02441L7.76313 6.86803L7.96675 7.02441L7.88725 6.77278L8.0905 6.61866H7.84075L7.76275 6.36591L7.68588 6.61866H7.43538L7.63825 6.77278L7.561 7.02441ZM8.39613 6.36628L8.59975 6.20953L8.80375 6.36628L8.72463 6.11428L8.92713 5.96016H8.6785L8.59938 5.70703L8.52213 5.96016H8.26975L8.47488 6.11428L8.39613 6.36628ZM1.03037 11.6328L1.23438 11.4779L1.438 11.6328L1.35925 11.383L1.56175 11.2285L1.31162 11.2293L1.23362 10.9765L1.15712 11.2293L0.90625 11.2285L1.10912 11.383L1.03037 11.6328ZM2.3785 11.6328L2.58213 11.4779L2.78613 11.6328L2.707 11.383L2.9095 11.2285L2.65975 11.2293L2.58175 10.9765L2.50488 11.2293L2.25475 11.2285L2.45725 11.383L2.3785 11.6328ZM3.86538 11.6328L4.069 11.4779L4.273 11.6328L4.19388 11.383L4.39637 11.2285L4.14475 11.2293L4.06863 10.9765L3.99137 11.2293L3.74125 11.2285L3.94413 11.383L3.86538 11.6328ZM5.34138 11.6328L5.545 11.4779L5.74863 11.6328L5.671 11.383L5.87238 11.2285L5.62188 11.2293L5.54463 10.9765L5.46738 11.2293L5.21725 11.2285L5.41975 11.383L5.34138 11.6328ZM6.82225 11.6328L7.02625 11.4779L7.23025 11.6328L7.15225 11.383L7.35363 11.2285L7.1035 11.2293L7.02588 10.9765L6.949 11.2293L6.6985 11.2285L6.901 11.383L6.82225 11.6328ZM8.37625 11.6328L8.57988 11.4779L8.78388 11.6328L8.70475 11.383L8.90763 11.2285L8.656 11.2293L8.5795 10.9765L8.50225 11.2293L8.251 11.2285L8.455 11.383L8.37625 11.6328ZM1.05025 7.68328L1.25425 7.52653L1.45788 7.68328L1.37875 7.43128L1.58163 7.27716L1.33112 7.27791L1.2535 7.02441L1.17625 7.27791L0.926125 7.27716L1.12975 7.43128L1.05025 7.68328ZM2.398 7.68328L2.602 7.52653L2.80563 7.68328L2.72688 7.43128L2.92938 7.27716L2.67925 7.27791L2.60163 7.02441L2.52438 7.27791L2.2735 7.27716L2.47713 7.43128L2.398 7.68328ZM3.88488 7.68328L4.0885 7.52653L4.2925 7.68328L4.21338 7.43128L4.41587 7.27716L4.16725 7.27791L4.0885 7.02441L4.01087 7.27791L3.76225 7.27716L3.96363 7.43128L3.88488 7.68328ZM5.36088 7.68328L5.5645 7.52653L5.7685 7.68328L5.68975 7.43128L5.89225 7.27716L5.641 7.27791L5.5645 7.02441L5.48725 7.27791L5.23675 7.27716L5.44 7.43128L5.36088 7.68328ZM6.84213 7.68328L7.04613 7.52653L7.24975 7.68328L7.171 7.43128L7.37388 7.27716L7.123 7.27791L7.04575 7.02441L6.9685 7.27791L6.71838 7.27716L6.92088 7.43128L6.84213 7.68328ZM1.76763 8.34178L1.97125 8.18541L2.17488 8.34178L2.0965 8.09016L2.299 7.93528H2.0485L1.97088 7.68328L1.89475 7.93528H1.6435L1.84638 8.09016L1.76763 8.34178ZM3.11575 8.34178L3.31938 8.18541L3.523 8.34178L3.44425 8.09016L3.64675 7.93528H3.39475L3.31938 7.68328L3.24175 7.93528H2.99163L3.1945 8.09016L3.11575 8.34178ZM4.60263 8.34178L4.80588 8.18541L5.0095 8.34178L4.93075 8.09016L5.13363 7.93528H4.8835L4.80588 7.68328L4.72825 7.93528H4.47775L4.68063 8.09016L4.60263 8.34178ZM6.07788 8.34178L6.28188 8.18541L6.48588 8.34178L6.406 8.09016L6.60925 7.93528H6.35913L6.2815 7.68328L6.20463 7.93528H5.95413L6.157 8.09016L6.07788 8.34178ZM7.561 8.34178L7.76313 8.18541L7.96675 8.34178L7.88725 8.09016L8.0905 7.93528H7.84075L7.76275 7.68328L7.68588 7.93528H7.43538L7.63825 8.09016L7.561 8.34178ZM8.39613 7.68328L8.59975 7.52653L8.80375 7.68328L8.72463 7.43128L8.92713 7.27716L8.6785 7.27791L8.59938 7.02441L8.52213 7.27791L8.26975 7.27716L8.47488 7.43128L8.39613 7.68328ZM1.03037 9.00028L1.23438 8.84391L1.438 9.00028L1.35888 8.74903L1.56175 8.59453L1.31125 8.59528L1.23362 8.34178L1.15712 8.59528L0.90625 8.59453L1.10912 8.74903L1.03037 9.00028ZM2.3785 9.00028L2.58213 8.84391L2.78613 9.00028L2.707 8.74903L2.9095 8.59453L2.65975 8.59528L2.58175 8.34178L2.50488 8.59528L2.25475 8.59453L2.45688 8.74903L2.3785 9.00028ZM3.86538 9.00028L4.069 8.84391L4.27262 9.00028L4.19388 8.74903L4.39637 8.59453L4.14475 8.59528L4.06863 8.34178L3.99137 8.59528L3.74125 8.59453L3.94413 8.74903L3.86538 9.00028ZM5.34138 9.00028L5.54463 8.84391L5.74863 9.00028L5.671 8.74903L5.87238 8.59453L5.62188 8.59528L5.54463 8.34178L5.46738 8.59528L5.21725 8.59453L5.41975 8.74903L5.34138 9.00028ZM6.82225 9.00028L7.02625 8.84391L7.22988 9.00028L7.15225 8.74903L7.35363 8.59453L7.10313 8.59528L7.02588 8.34178L6.949 8.59528L6.6985 8.59453L6.901 8.74903L6.82225 9.00028ZM1.74775 9.65878L1.95138 9.50278L2.155 9.65878L2.07662 9.40903L2.27875 9.25378H2.02825L1.951 9.00028L1.87413 9.25378H1.62363L1.8265 9.40903L1.74775 9.65878ZM3.09588 9.65878L3.2995 9.50278L3.50313 9.65878L3.42438 9.40903L3.62688 9.25378H3.376L3.29913 9.00028L3.22188 9.25378H2.97138L3.17463 9.40903L3.09588 9.65878ZM4.58313 9.65878L4.786 9.50278L4.99 9.65878L4.90975 9.40903L5.11375 9.25378H4.86363L4.786 9.00028L4.70875 9.25378H4.45825L4.66113 9.40903L4.58313 9.65878ZM6.05725 9.65878L6.262 9.50278L6.466 9.65878L6.38725 9.40903L6.58938 9.25378H6.33925L6.26163 9.00028L6.18475 9.25378H5.93425L6.13713 9.40903L6.05725 9.65878ZM7.5385 9.65878L7.74325 9.50278L7.94725 9.65878L7.86813 9.40903L8.07138 9.25378H7.82125L7.74325 9.00028L7.666 9.25378H7.4155L7.61838 9.40903L7.5385 9.65878ZM8.37625 9.00028L8.57988 8.84391L8.7835 9.00028L8.70475 8.74903L8.90763 8.59453L8.656 8.59528L8.5795 8.34178L8.50225 8.59528L8.251 8.59453L8.455 8.74903L8.37625 9.00028ZM1.03037 10.3177L1.23438 10.1628L1.438 10.3177L1.35888 10.066L1.56175 9.91153L1.31125 9.91228L1.23362 9.65878L1.15712 9.91228L0.90625 9.91153L1.10912 10.066L1.03037 10.3177ZM2.3785 10.3177L2.58213 10.1628L2.78613 10.3177L2.707 10.066L2.9095 9.91153L2.65975 9.91228L2.58175 9.65878L2.50488 9.91228L2.25475 9.91153L2.45688 10.066L2.3785 10.3177ZM3.86538 10.3177L4.069 10.1628L4.27262 10.3177L4.19388 10.066L4.39637 9.91153L4.14475 9.91228L4.06863 9.65878L3.99137 9.91228L3.74125 9.91153L3.94413 10.066L3.86538 10.3177ZM5.34138 10.3177L5.54463 10.1628L5.74863 10.3177L5.671 10.066L5.87238 9.91153L5.62188 9.91228L5.54463 9.65878L5.46738 9.91228L5.21725 9.91153L5.41975 10.066L5.34138 10.3177ZM6.82225 10.3177L7.02625 10.1628L7.22988 10.3177L7.15225 10.066L7.35363 9.91153L7.10313 9.91228L7.02588 9.65878L6.949 9.91228L6.6985 9.91153L6.901 10.066L6.82225 10.3177ZM1.74775 10.9765L1.95138 10.8198L2.155 10.9765L2.07662 10.7245L2.27875 10.5715H2.02825L1.951 10.3177L1.87413 10.5715H1.62363L1.8265 10.7245L1.74775 10.9765ZM3.09588 10.9765L3.2995 10.8198L3.50313 10.9765L3.42438 10.7245L3.62688 10.5715H3.376L3.29913 10.3177L3.22188 10.5715H2.97138L3.17463 10.7245L3.09588 10.9765ZM4.58313 10.9765L4.786 10.8198L4.99 10.9765L4.90975 10.7245L5.11375 10.5715H4.86363L4.786 10.3177L4.70875 10.5715H4.45825L4.66113 10.7245L4.58313 10.9765ZM6.05725 10.9765L6.262 10.8198L6.466 10.9765L6.38725 10.7245L6.58938 10.5715H6.33925L6.26163 10.3177L6.18475 10.5715H5.93425L6.13713 10.7245L6.05725 10.9765ZM7.5385 10.9765L7.74325 10.8198L7.94725 10.9765L7.86813 10.7245L8.07138 10.5715H7.82125L7.74325 10.3177L7.666 10.5715H7.4155L7.61838 10.7245L7.5385 10.9765ZM8.37625 10.3177L8.57988 10.1628L8.7835 10.3177L8.70475 10.066L8.90763 9.91153L8.656 9.91228L8.5795 9.65878L8.50225 9.91228L8.251 9.91153L8.455 10.066L8.37625 10.3177Z" fill="white"/>
</svg>
